:SAMPLES-PER-SECOND 30
:FULLY-SPECIFIED
:DEGREES
211
root  -10.5935 34.7414 -11.1386 -176.98 5.38773 179.661
RightUpLeg  -3.55796 -13.534 -3.98595
RightLeg  7.75406 -4.63355 -0.327687
RightFoot  4.16601 0.00989415 -0.160507
RightToes  -27.9067 -0.121784 -0.227771
Spine  -1.59046 0.585899 -0.337509
Spine1  -3.17877 1.17966 0.116165
HEad  -54.3619 5.16215 9.41958
LeftShoulder1  -1.94126e-019 -3.10601e-018 -2.51263e-017
LeftArm  -19.9977 26.6183 -78.0322
LeftForeArm  25.1132 -18.6237 -3.16716
LeftHand  -0.345576 1.07351 9.25381
RightShoulder  -4.96962e-017 0 -2.36833e-017
RightArm  -23.5176 -14.3538 63.7406
RightForeArm  -164.502 71.6933 154.185
RightHand  -1.14467 -1.32064 -32.0493
LeftUpLeg  -5.75828 0.431289 3.29788
LeftLeg  10.1526 15.1278 1.69402
LeftFoot  5.3895 -0.067075 1.62612
LeftToes  -24.4705 2.14545e-006 -7.7278e-009
212
root  -10.5995 34.7407 -11.1334 -176.726 4.98166 179.639
RightUpLeg  -3.74817 -13.9451 -3.97442
RightLeg  7.74535 -4.64808 -0.328005
RightFoot  4.12354 0.00952454 -0.15522
RightToes  -27.8636 -0.122085 -0.228029
Spine  -1.64824 0.571663 -0.343828
Spine1  -3.31211 1.19211 0.0673283
HEad  -52.3207 4.76922 8.85096
LeftShoulder1  -1.94126e-019 -3.10601e-018 -2.51263e-017
LeftArm  -19.1559 26.1996 -78.4195
LeftForeArm  24.8991 -19.549 -3.28924
LeftHand  -0.344728 1.03243 9.14782
RightShoulder  -4.96962e-017 0 -2.36833e-017
RightArm  -27.2889 -16.1881 66.4391
RightForeArm  170.323 77.9185 135.605
RightHand  -0.619036 -2.77689 -27.0832
LeftUpLeg  -6.03921 0.13343 3.26718
LeftLeg  10.052 15.0647 1.66068
LeftFoot  5.36937 -0.0650452 1.61482
LeftToes  -24.655 2.14545e-006 -7.7278e-009
213
root  -10.6038 34.7401 -11.1141 -176.274 4.69305 179.622
RightUpLeg  -4.20471 -14.5757 -3.90657
RightLeg  7.76568 -4.34537 -0.308188
RightFoot  4.12008 0.00808843 -0.132979
RightToes  -27.9669 -0.122367 -0.228277
Spine  -1.79135 0.539365 -0.321733
Spine1  -3.61258 1.15936 0.0817073
HEad  -49.5538 4.31984 7.88164
LeftShoulder1  -1.94126e-019 -3.10601e-018 -2.51263e-017
LeftArm  -18.3548 25.7039 -78.9364
LeftForeArm  24.7374 -19.8448 -3.33004
LeftHand  -0.34419 0.928924 8.93158
RightShoulder  -4.96962e-017 0 -2.36833e-017
RightArm  -30.7078 -17.148 68.7336
RightForeArm  105.581 80.9804 74.1411
RightHand  -0.396133 -3.48467 -23.6656
LeftUpLeg  -6.50773 -0.0592913 3.25372
LeftLeg  9.92294 15.0022 1.62018
LeftFoot  5.41922 -0.0644065 1.62133
LeftToes  -24.9898 2.14545e-006 -7.7278e-009
214
root  -10.6031 34.7396 -11.0825 -175.819 4.5737 179.64
RightUpLeg  -4.71152 -14.9984 -3.7667
RightLeg  7.7772 -4.09243 -0.291062
RightFoot  4.14411 0.00721375 -0.116928
RightToes  -27.9709 -0.122628 -0.228511
Spine  -1.91664 0.557246 -0.319363
Spine1  -3.87567 1.22072 0.0569853
HEad  -46.0991 3.65291 6.8273
LeftShoulder1  -1.94126e-019 -3.10601e-018 -2.51263e-017
LeftArm  -17.9275 24.9779 -79.4689
LeftForeArm  25.0649 -19.7622 -3.32469
LeftHand  -0.333941 0.929552 8.66374
RightShoulder  -4.96962e-017 0 -2.36833e-017
RightArm  -33.0803 -16.9252 70.3087
RightForeArm  57.8465 70.9532 26.1096
RightHand  -0.336504 -3.61961 -21.5403
LeftUpLeg  -6.96434 -0.142701 3.28049
LeftLeg  9.78909 15.0121 1.5862
LeftFoot  5.49193 -0.0648597 1.64039
LeftToes  -25.1848 2.14545e-006 -7.7278e-009
215
root  -10.6008 34.7343 -11.0386 -175.341 4.51474 179.667
RightUpLeg  -5.30666 -15.3276 -3.6022
RightLeg  7.85403 -3.86995 -0.280434
RightFoot  4.20831 0.00684254 -0.106119
RightToes  -28.1895 -0.122867 -0.22873
Spine  -1.96692 0.610066 -0.342796
Spine1  -3.98773 1.34434 -0.0182494
HEad  -42.412 2.83046 5.7495
LeftShoulder1  -1.94126e-019 -3.10601e-018 -2.51263e-017
LeftArm  -17.1552 24.0701 -79.8663
LeftForeArm  25.476 -19.635 -3.31424
LeftHand  -0.336068 0.817738 8.51733
RightShoulder  -4.96962e-017 0 -2.36833e-017
RightArm  -34.0109 -15.5097 70.9062
RightForeArm  46.3759 54.4461 11.8313
RightHand  -0.245426 -3.9755 -19.3969
LeftUpLeg  -7.51339 -0.291255 3.31622
LeftLeg  9.78621 15.1179 1.59636
LeftFoot  5.51715 -0.0654167 1.65603
LeftToes  -25.1461 2.14545e-006 -7.7278e-009
